<svg width="15" height="15" viewBox="0 0 15 15" fill="none" xmlns="http://www.w3.org/2000/svg">
<path fill-rule="evenodd" clip-rule="evenodd" d="M4.20824 4.54083H3.14069L3.08653 4.86578C2.91551 5.89191 3.15759 6.61138 3.6119 7.06998C3.92904 7.39009 4.31947 7.55203 4.66284 7.61682L4.99445 11.9297H4.24772V12.7075H10.4699V11.9297H9.72325L10.0545 7.6258C10.3534 7.58081 10.6122 7.47881 10.8308 7.32789C11.1315 7.12034 11.331 6.83784 11.4589 6.54267C11.7093 5.96488 11.7038 5.29931 11.6315 4.86578L11.5773 4.54083H4.98742C4.9625 4.1596 4.97846 3.70818 5.08025 3.3292C5.14675 3.08159 5.24192 2.89518 5.35762 2.77526C5.46304 2.666 5.59897 2.59638 5.80328 2.59638V1.8186C5.38536 1.8186 5.04815 1.97584 4.7979 2.23521C4.55793 2.48393 4.4149 2.80794 4.32909 3.12746C4.20472 3.59053 4.18381 4.10753 4.20824 4.54083ZM9.27238 7.65194H5.44562L5.77452 11.9297H8.94317L9.27238 7.65194ZM5.02573 6.87416H9.69235C10.0137 6.87416 10.2338 6.7949 10.389 6.68779C10.546 6.57937 10.6625 6.42437 10.7452 6.23342C10.8677 5.95093 10.9052 5.61372 10.8956 5.3186H3.81504C3.7724 5.95313 3.95816 6.31436 4.16444 6.52259C4.42089 6.78144 4.77797 6.87411 5.02573 6.87416C5.02572 6.87416 5.02575 6.87416 5.02573 6.87416Z" fill="black"/>
<ellipse cx="6.15576" cy="2.23193" rx="0.765625" ry="0.65625" fill="black"/>
</svg>
